<?xml version="1.0" encoding="UTF-8"?> <svg xmlns="http://www.w3.org/2000/svg" xmlns:xlink="http://www.w3.org/1999/xlink" width="267px" height="57px" viewBox="0 0 267 57" version="1.1"><title>logo-light</title><g id="Symbols" stroke="none" stroke-width="1" fill="none" fill-rule="evenodd"><g id="logo-light" transform="translate(-0.000000, -0.000000)"><path d="M75.2906,27.6231 C75.2906,30.1961 76.1176,32.3501 77.7746,34.0821 C79.4046,35.7901 81.4816,36.6421 84.0046,36.6421 C85.3536,36.6421 86.6536,36.3491 87.9006,35.7631 L83.8526,31.7121 L86.9456,28.6551 L91.1506,32.8581 C92.1676,31.3051 92.6776,29.5601 92.6776,27.6231 C92.6776,25.1011 91.8506,22.9741 90.1956,21.2411 C88.5386,19.5091 86.4736,18.6431 84.0046,18.6431 C81.5076,18.6431 79.4296,19.5091 77.7746,21.2411 C76.1176,22.9741 75.2906,25.1011 75.2906,27.6231 M84.0046,41.0361 C80.1326,41.0361 76.9196,39.7621 74.3726,37.2151 C71.8256,34.6681 70.5546,31.4821 70.5546,27.6621 C70.5546,23.8401 71.8256,20.6551 74.3726,18.1081 C76.9476,15.5351 80.1566,14.2491 84.0046,14.2491 C87.7986,14.2491 90.9826,15.5351 93.5586,18.1081 C96.1296,20.6821 97.4166,23.8661 97.4166,27.6621 C97.4166,30.9471 96.4366,33.8021 94.4756,36.2221 L97.5696,39.3171 L94.5126,42.3741 L91.1876,39.0501 C89.0726,40.3751 86.6786,41.0361 84.0046,41.0361" id="Fill-494" fill="#FFFFFF"></path><path d="M117.8238,30.1836 L117.8238,14.7446 L122.4078,14.7446 L122.4078,30.2216 C122.4078,33.2536 121.3388,35.8266 119.1988,37.9416 C117.0588,40.0046 114.3968,41.0356 111.2128,41.0356 C108.0278,41.0356 105.3658,40.0046 103.2258,37.9416 C101.0868,35.8266 100.0168,33.2536 100.0168,30.2216 L100.0168,14.7446 L104.5638,14.7446 L104.5638,30.1836 C104.5638,32.0696 105.2008,33.6486 106.4728,34.9216 C107.7478,36.1966 109.3278,36.8326 111.2128,36.8326 C113.0718,36.8326 114.6388,36.1966 115.9118,34.9216 C117.1858,33.6486 117.8238,32.0696 117.8238,30.1836" id="Fill-495" fill="#FFFFFF"></path><path d="M129.6695,27.6231 C129.6695,30.1961 130.4965,32.3501 132.1545,34.0821 C133.7835,35.7901 135.8615,36.6421 138.3835,36.6421 C140.8805,36.6421 142.9425,35.7901 144.5755,34.0821 C146.2305,32.3501 147.0575,30.1961 147.0575,27.6231 C147.0575,25.1011 146.2305,22.9741 144.5755,21.2411 C142.9175,19.5091 140.8535,18.6431 138.3835,18.6431 C135.8865,18.6431 133.8095,19.5091 132.1545,21.2411 C130.4965,22.9741 129.6695,25.1011 129.6695,27.6231 M128.7525,37.2151 C126.2055,34.6681 124.9335,31.4821 124.9335,27.6621 C124.9335,23.8401 126.2055,20.6551 128.7525,18.1081 C131.3265,15.5351 134.5365,14.2491 138.3835,14.2491 C142.1775,14.2491 145.3615,15.5351 147.9375,18.1081 C150.5095,20.6821 151.7965,23.8661 151.7965,27.6621 C151.7965,31.4571 150.5095,34.6421 147.9375,37.2151 C145.3905,39.7621 142.2055,41.0361 138.3835,41.0361 C134.5115,41.0361 131.2995,39.7621 128.7525,37.2151" id="Fill-496" fill="#FFFFFF"></path><polygon id="Fill-497" fill="#FFFFFF" points="159.0553 40.5396 154.7013 40.5396 154.7013 14.7446 158.7123 14.7446 172.8503 32.6666 172.8503 14.7446 177.2443 14.7446 177.2443 40.5396 173.2333 40.5396 159.0553 22.5786"></polygon><path d="M184.8853,27.6231 C184.8853,30.1961 185.7123,32.3501 187.3703,34.0821 C188.9993,35.7901 191.0773,36.6421 193.5993,36.6421 C196.0963,36.6421 198.1583,35.7901 199.7913,34.0821 C201.4463,32.3501 202.2733,30.1961 202.2733,27.6231 C202.2733,25.1011 201.4463,22.9741 199.7913,21.2411 C198.1333,19.5091 196.0693,18.6431 193.5993,18.6431 C191.1023,18.6431 189.0253,19.5091 187.3703,21.2411 C185.7123,22.9741 184.8853,25.1011 184.8853,27.6231 M183.9683,37.2151 C181.4213,34.6681 180.1493,31.4821 180.1493,27.6621 C180.1493,23.8401 181.4213,20.6551 183.9683,18.1081 C186.5433,15.5351 189.7523,14.2491 193.5993,14.2491 C197.3933,14.2491 200.5773,15.5351 203.1533,18.1081 C205.7253,20.6821 207.0123,23.8661 207.0123,27.6621 C207.0123,31.4571 205.7253,34.6421 203.1533,37.2151 C200.6063,39.7621 197.4213,41.0361 193.5993,41.0361 C189.7283,41.0361 186.5153,39.7621 183.9683,37.2151" id="Fill-498" fill="#FFFFFF"></path><polygon id="Fill-499" fill="#FFFFFF" points="216.2203 18.9492 207.3953 18.9492 207.3953 14.7442 229.5963 14.7442 229.5963 18.9492 220.7703 18.9492 220.7703 40.5392 216.2203 40.5392"></polygon><path d="M244.1197,31.2925 L239.8407,21.2045 L235.5607,31.2925 L244.1197,31.2925 Z M231.6617,40.5395 L226.8847,40.5395 L237.9687,14.7445 L241.6757,14.7445 L252.7927,40.5395 L248.0157,40.5395 L245.8767,35.4565 L233.8017,35.4565 L231.6617,40.5395 Z" id="Fill-500" fill="#FFFFFF"></path><path d="M263.5973,17.2266 C263.7613,17.2266 263.9123,17.2716 264.0523,17.3616 C264.1923,17.4526 264.2983,17.5666 264.3703,17.7046 L264.9723,17.4086 C264.6693,16.8726 264.2113,16.6056 263.5973,16.6056 C263.0973,16.6056 262.6803,16.7646 262.3473,17.0806 C262.0133,17.3986 261.8473,17.8066 261.8473,18.3066 C261.8473,18.8056 262.0133,19.2136 262.3473,19.5306 C262.6803,19.8486 263.0973,20.0066 263.5973,20.0066 C264.2013,20.0066 264.6593,19.7376 264.9723,19.1986 L264.3703,18.9076 C264.2983,19.0486 264.1923,19.1636 264.0523,19.2526 C263.9123,19.3416 263.7613,19.3856 263.5973,19.3856 C263.2973,19.3856 263.0513,19.2836 262.8573,19.0806 C262.6633,18.8756 262.5663,18.6186 262.5663,18.3066 C262.5663,17.9936 262.6633,17.7356 262.8573,17.5326 C263.0513,17.3286 263.2973,17.2266 263.5973,17.2266" id="Fill-501" fill="#FFFFFF"></path><path d="M263.4098,21.1724 C261.8288,21.1724 260.5438,19.8864 260.5438,18.3064 C260.5438,16.7254 261.8288,15.4394 263.4098,15.4394 C264.9898,15.4394 266.2758,16.7254 266.2758,18.3064 C266.2758,19.8864 264.9898,21.1724 263.4098,21.1724 M263.4098,14.7444 C261.4458,14.7444 259.8478,16.3424 259.8478,18.3064 C259.8478,20.2694 261.4458,21.8674 263.4098,21.8674 C265.3728,21.8674 266.9708,20.2694 266.9708,18.3064 C266.9708,16.3424 265.3728,14.7444 263.4098,14.7444" id="Fill-502" fill="#FFFFFF"></path><g id="Group" transform="translate(-0.000000, 0.000000)" fill="#F91E2B"><path d="M3.148,14.9815 C2.634,15.9465 2.191,16.9465 1.8,17.9635 L5.982,22.1465 L0.313,23.5895 C0.13,24.6945 0.026,25.8075 -8.8817842e-16,26.9285 L11.956,23.7905 L3.148,14.9815 Z" id="Fill-503"></path><path d="M26.7203,0 C25.5893,0.035 24.4763,0.156 23.3643,0.348 L21.8673,6.26 L17.5553,1.948 C16.5553,2.356 15.5733,2.817 14.6163,3.339 L23.5113,12.234 L26.7203,0 Z" id="Fill-504"></path><path d="M6.8775,9.5474 C6.1555,10.3564 5.5125,11.1904 4.9215,12.0604 L18.2945,25.4334 L0.0775,30.2944 C0.1735,31.3634 0.3215,32.4324 0.5475,33.4764 L24.4335,27.1024 L6.8775,9.5474 Z" id="Fill-505"></path><path d="M4.0865,42.4932 C4.6345,43.4232 5.2695,44.3192 5.9565,45.1802 L11.8245,43.6932 L10.1125,49.4402 C10.9735,50.1802 11.8775,50.8402 12.8165,51.4312 L16.2855,39.4062 L4.0865,42.4932 Z" id="Fill-506"></path><path d="M1.3394,36.5108 C1.6514,37.5198 2.0344,38.5108 2.4784,39.4758 L20.9454,34.7978 L15.7554,53.0838 C16.7114,53.5528 17.7114,53.9618 18.7114,54.3188 L25.5114,30.3898 L1.3394,36.5108 Z" id="Fill-507"></path><path d="M51.44,12.8081 C50.849,11.8691 50.188,10.9641 49.449,10.1031 L43.711,11.8081 L45.188,5.9471 C44.328,5.2611 43.432,4.6261 42.502,4.0781 L39.415,16.2771 L51.44,12.8081 Z" id="Fill-508"></path><path d="M54.3267,18.7031 C53.9707,17.7031 53.5617,16.7031 53.0927,15.7471 L34.8057,20.9381 L39.4837,2.4691 C38.5187,2.0261 37.5277,1.6431 36.5187,1.3301 L30.3977,25.5031 L54.3267,18.7031 Z" id="Fill-509"></path><path d="M33.3023,0.4956 C32.2503,0.2786 31.1803,0.1306 30.1113,0.0526 L25.1813,18.5466 L11.7553,5.1216 C10.9043,5.7296 10.0693,6.3916 9.2783,7.1126 L26.8503,24.6856 L33.3023,0.4956 Z" id="Fill-510"></path><path d="M28.9107,55.8399 C30.0327,55.8139 31.1457,55.7099 32.2507,55.5269 L33.6937,49.8579 L37.8757,54.0399 C38.8927,53.6489 39.8927,53.2059 40.8577,52.6929 L32.0507,43.8839 L28.9107,55.8399 Z" id="Fill-511"></path><path d="M55.8404,29.1201 L43.6064,32.3281 L52.5014,41.2241 C53.0234,40.2671 53.4844,39.2851 53.8924,38.2851 L49.5794,33.9721 L55.4914,32.4761 C55.6834,31.3631 55.8054,30.2501 55.8404,29.1201" id="Fill-512"></path><path d="M22.356,55.2979 C23.409,55.5209 24.468,55.6729 25.545,55.7599 L30.409,37.5509 L49.391,56.5329 L51.631,54.2929 L28.751,31.4119 L22.356,55.2979 Z" id="Fill-513"></path><path d="M37.2965,30.6626 L55.7845,25.7276 C55.7055,24.6596 55.5625,23.5906 55.3465,22.5306 L31.1655,28.9956 L54.0465,51.8776 L56.2785,49.6446 L37.2965,30.6626 Z" id="Fill-514"></path></g></g></g></svg> 