<?xml version="1.0" encoding="UTF-8"?> <svg xmlns="http://www.w3.org/2000/svg" xmlns:xlink="http://www.w3.org/1999/xlink" width="267px" height="65px" viewBox="0 0 267 65" version="1.1"><title>logo-dark-full</title><g id="Symbols" stroke="none" stroke-width="1" fill="none" fill-rule="evenodd"><g id="logo-dark-full"><path d="M75.2906,27.6226 C75.2906,30.1966 76.1176,32.3496 77.7746,34.0816 C79.4046,35.7896 81.4816,36.6416 84.0046,36.6416 C85.3536,36.6416 86.6536,36.3496 87.9006,35.7626 L83.8526,31.7126 L86.9456,28.6556 L91.1506,32.8586 C92.1676,31.3046 92.6776,29.5596 92.6776,27.6226 C92.6776,25.1006 91.8506,22.9736 90.1956,21.2416 C88.5386,19.5086 86.4736,18.6436 84.0046,18.6436 C81.5076,18.6436 79.4296,19.5086 77.7746,21.2416 C76.1176,22.9736 75.2906,25.1006 75.2906,27.6226 M84.0046,41.0356 C80.1326,41.0356 76.9196,39.7626 74.3726,37.2156 C71.8256,34.6676 70.5546,31.4816 70.5546,27.6616 C70.5546,23.8396 71.8256,20.6546 74.3726,18.1076 C76.9476,15.5346 80.1566,14.2486 84.0046,14.2486 C87.7986,14.2486 90.9826,15.5346 93.5586,18.1076 C96.1296,20.6816 97.4166,23.8666 97.4166,27.6616 C97.4166,30.9476 96.4366,33.8026 94.4756,36.2216 L97.5696,39.3176 L94.5126,42.3746 L91.1876,39.0496 C89.0726,40.3746 86.6786,41.0356 84.0046,41.0356" id="Fill-440" fill="#071436"></path><path d="M117.8238,30.1836 L117.8238,14.7446 L122.4078,14.7446 L122.4078,30.2216 C122.4078,33.2526 121.3388,35.8266 119.1988,37.9416 C117.0588,40.0046 114.3968,41.0356 111.2128,41.0356 C108.0278,41.0356 105.3658,40.0046 103.2258,37.9416 C101.0868,35.8266 100.0168,33.2526 100.0168,30.2216 L100.0168,14.7446 L104.5638,14.7446 L104.5638,30.1836 C104.5638,32.0696 105.2008,33.6476 106.4728,34.9216 C107.7478,36.1966 109.3278,36.8326 111.2128,36.8326 C113.0718,36.8326 114.6388,36.1966 115.9118,34.9216 C117.1858,33.6476 117.8238,32.0696 117.8238,30.1836" id="Fill-442" fill="#071436"></path><path d="M129.6695,27.6226 C129.6695,30.1966 130.4965,32.3496 132.1545,34.0816 C133.7835,35.7896 135.8615,36.6416 138.3835,36.6416 C140.8805,36.6416 142.9425,35.7896 144.5755,34.0816 C146.2305,32.3496 147.0575,30.1966 147.0575,27.6226 C147.0575,25.1006 146.2305,22.9736 144.5755,21.2416 C142.9175,19.5086 140.8535,18.6436 138.3835,18.6436 C135.8865,18.6436 133.8095,19.5086 132.1545,21.2416 C130.4965,22.9736 129.6695,25.1006 129.6695,27.6226 M128.7525,37.2156 C126.2055,34.6676 124.9335,31.4816 124.9335,27.6616 C124.9335,23.8396 126.2055,20.6546 128.7525,18.1076 C131.3265,15.5346 134.5365,14.2486 138.3835,14.2486 C142.1775,14.2486 145.3615,15.5346 147.9375,18.1076 C150.5095,20.6816 151.7965,23.8666 151.7965,27.6616 C151.7965,31.4566 150.5095,34.6416 147.9375,37.2156 C145.3905,39.7626 142.2055,41.0356 138.3835,41.0356 C134.5115,41.0356 131.2995,39.7626 128.7525,37.2156" id="Fill-444" fill="#071436"></path><polygon id="Fill-446" fill="#071436" points="159.0553 40.5396 154.7013 40.5396 154.7013 14.7446 158.7123 14.7446 172.8503 32.6666 172.8503 14.7446 177.2443 14.7446 177.2443 40.5396 173.2333 40.5396 159.0553 22.5786"></polygon><path d="M184.8853,27.6226 C184.8853,30.1966 185.7123,32.3496 187.3703,34.0816 C188.9993,35.7896 191.0773,36.6416 193.5993,36.6416 C196.0963,36.6416 198.1583,35.7896 199.7913,34.0816 C201.4463,32.3496 202.2733,30.1966 202.2733,27.6226 C202.2733,25.1006 201.4463,22.9736 199.7913,21.2416 C198.1333,19.5086 196.0693,18.6436 193.5993,18.6436 C191.1023,18.6436 189.0253,19.5086 187.3703,21.2416 C185.7123,22.9736 184.8853,25.1006 184.8853,27.6226 M183.9683,37.2156 C181.4213,34.6676 180.1493,31.4816 180.1493,27.6616 C180.1493,23.8396 181.4213,20.6546 183.9683,18.1076 C186.5433,15.5346 189.7523,14.2486 193.5993,14.2486 C197.3933,14.2486 200.5773,15.5346 203.1533,18.1076 C205.7253,20.6816 207.0123,23.8666 207.0123,27.6616 C207.0123,31.4566 205.7253,34.6416 203.1533,37.2156 C200.6063,39.7626 197.4213,41.0356 193.5993,41.0356 C189.7283,41.0356 186.5153,39.7626 183.9683,37.2156" id="Fill-448" fill="#071436"></path><polygon id="Fill-450" fill="#071436" points="216.2203 18.9493 207.3953 18.9493 207.3953 14.7443 229.5963 14.7443 229.5963 18.9493 220.7703 18.9493 220.7703 40.5393 216.2203 40.5393"></polygon><path d="M244.1197,31.2925 L239.8407,21.2045 L235.5607,31.2925 L244.1197,31.2925 Z M231.6617,40.5395 L226.8847,40.5395 L237.9687,14.7445 L241.6757,14.7445 L252.7927,40.5395 L248.0157,40.5395 L245.8767,35.4565 L233.8017,35.4565 L231.6617,40.5395 Z" id="Fill-452" fill="#071436"></path><path d="M263.5973,17.2266 C263.7613,17.2266 263.9123,17.2716 264.0523,17.3616 C264.1923,17.4526 264.2983,17.5666 264.3703,17.7046 L264.9723,17.4086 C264.6693,16.8726 264.2113,16.6046 263.5973,16.6046 C263.0973,16.6046 262.6803,16.7636 262.3473,17.0806 C262.0133,17.3976 261.8473,17.8066 261.8473,18.3056 C261.8473,18.8056 262.0133,19.2136 262.3473,19.5306 C262.6803,19.8476 263.0973,20.0066 263.5973,20.0066 C264.2013,20.0066 264.6593,19.7366 264.9723,19.1976 L264.3703,18.9076 C264.2983,19.0486 264.1923,19.1636 264.0523,19.2526 C263.9123,19.3406 263.7613,19.3856 263.5973,19.3856 C263.2973,19.3856 263.0513,19.2836 262.8573,19.0796 C262.6633,18.8756 262.5663,18.6186 262.5663,18.3056 C262.5663,17.9936 262.6633,17.7356 262.8573,17.5316 C263.0513,17.3286 263.2973,17.2266 263.5973,17.2266" id="Fill-454" fill="#071436"></path><path d="M263.4098,21.1719 C261.8288,21.1719 260.5438,19.8859 260.5438,18.3059 C260.5438,16.7249 261.8288,15.4399 263.4098,15.4399 C264.9898,15.4399 266.2758,16.7249 266.2758,18.3059 C266.2758,19.8859 264.9898,21.1719 263.4098,21.1719 M263.4098,14.7449 C261.4458,14.7449 259.8478,16.3419 259.8478,18.3059 C259.8478,20.2699 261.4458,21.8669 263.4098,21.8669 C265.3728,21.8669 266.9708,20.2699 266.9708,18.3059 C266.9708,16.3419 265.3728,14.7449 263.4098,14.7449" id="Fill-456" fill="#071436"></path><path d="M3.148,14.9815 C2.634,15.9465 2.191,16.9465 1.8,17.9635 L5.982,22.1465 L0.313,23.5895 C0.13,24.6935 0.026,25.8075 -4.35207426e-14,26.9285 L11.956,23.7895 L3.148,14.9815 Z" id="Fill-458" fill="#F91E2B"></path><path d="M26.7203,-4.35207426e-14 C25.5893,0.035 24.4763,0.156 23.3643,0.348 L21.8673,6.26 L17.5553,1.948 C16.5553,2.356 15.5733,2.817 14.6163,3.339 L23.5113,12.234 L26.7203,-4.35207426e-14 Z" id="Fill-460" fill="#F91E2B"></path><path d="M6.8775,9.5469 C6.1555,10.3559 5.5125,11.1909 4.9215,12.0599 L18.2945,25.4329 L0.0775,30.2939 C0.1735,31.3629 0.3215,32.4329 0.5475,33.4759 L24.4335,27.1029 L6.8775,9.5469 Z" id="Fill-462" fill="#F91E2B"></path><path d="M4.0865,42.4927 C4.6345,43.4237 5.2695,44.3187 5.9565,45.1797 L11.8245,43.6927 L10.1125,49.4407 C10.9735,50.1797 11.8775,50.8407 12.8165,51.4317 L16.2855,39.4067 L4.0865,42.4927 Z" id="Fill-464" fill="#F91E2B"></path><path d="M1.3394,36.5108 C1.6514,37.5198 2.0344,38.5108 2.4784,39.4758 L20.9454,34.7978 L15.7554,53.0838 C16.7114,53.5528 17.7114,53.9618 18.7114,54.3188 L25.5114,30.3888 L1.3394,36.5108 Z" id="Fill-466" fill="#F91E2B"></path><path d="M51.44,12.8077 C50.849,11.8687 50.188,10.9647 49.449,10.1037 L43.711,11.8077 L45.188,5.9477 C44.328,5.2607 43.432,4.6257 42.502,4.0777 L39.415,16.2777 L51.44,12.8077 Z" id="Fill-468" fill="#F91E2B"></path><path d="M54.3267,18.7032 C53.9707,17.7032 53.5617,16.7032 53.0927,15.7462 L34.8057,20.9372 L39.4837,2.4692 C38.5187,2.0262 37.5277,1.6432 36.5187,1.3302 L30.3977,25.5022 L54.3267,18.7032 Z" id="Fill-470" fill="#F91E2B"></path><path d="M33.3023,0.4956 C32.2503,0.2776 31.1803,0.1306 30.1113,0.0526 L25.1813,18.5466 L11.7553,5.1206 C10.9043,5.7296 10.0693,6.3906 9.2783,7.1126 L26.8503,24.6856 L33.3023,0.4956 Z" id="Fill-472" fill="#F91E2B"></path><path d="M28.9107,55.8399 C30.0327,55.8139 31.1457,55.7099 32.2507,55.5269 L33.6937,49.8579 L37.8757,54.0399 C38.8927,53.6489 39.8927,53.2049 40.8577,52.6929 L32.0507,43.8839 L28.9107,55.8399 Z" id="Fill-474" fill="#F91E2B"></path><path d="M55.8404,29.1197 L43.6064,32.3277 L52.5014,41.2237 C53.0234,40.2667 53.4844,39.2847 53.8924,38.2847 L49.5794,33.9717 L55.4914,32.4757 C55.6834,31.3637 55.8054,30.2497 55.8404,29.1197" id="Fill-476" fill="#F91E2B"></path><path d="M22.356,55.2974 C23.409,55.5214 24.468,55.6724 25.545,55.7594 L30.409,37.5504 L49.391,56.5334 L51.631,54.2934 L28.751,31.4114 L22.356,55.2974 Z" id="Fill-478" fill="#F91E2B"></path><path d="M37.2965,30.6621 L55.7845,25.7271 C55.7055,24.6591 55.5625,23.5901 55.3465,22.5301 L31.1655,28.9961 L54.0465,51.8771 L56.2785,49.6451 L37.2965,30.6621 Z" id="Fill-480" fill="#F91E2B"></path><polygon id="Fill-482" fill="#071436" points="154.8439 64.7815 156.2659 64.7815 156.2659 56.6895 154.8439 56.6895"></polygon><polygon id="Fill-484" fill="#071436" points="160.8668 64.7813 159.5058 64.7813 159.5058 56.6893 160.7588 56.6893 165.1808 62.3123 165.1808 56.6893 166.5568 56.6893 166.5568 64.7813 165.3018 64.7813 160.8668 59.1473"></polygon><polygon id="Fill-485" fill="#071436" points="173.7877 64.7813 172.6167 64.7813 169.2117 56.6893 170.7057 56.6893 173.2027 62.7433 175.7017 56.6893 177.1957 56.6893"></polygon><polygon id="Fill-486" fill="#071436" points="179.8521 56.689 185.7561 56.689 185.7561 58.007 181.2741 58.007 181.2741 60.034 185.1351 60.034 185.1351 61.353 181.2741 61.353 181.2741 63.462 185.8151 63.462 185.8151 64.781 179.8521 64.781"></polygon><path d="M194.2916,58.3433 L192.8816,58.7623 C192.8096,58.5163 192.6406,58.3093 192.3776,58.1463 C192.1146,57.9823 191.8116,57.9003 191.4696,57.9003 C191.0956,57.9003 190.7766,57.9903 190.5196,58.1693 C190.2616,58.3493 190.1316,58.5753 190.1316,58.8473 C190.0906,59.1113 190.2826,59.3553 190.7046,59.5783 C190.8016,59.6273 190.9436,59.6863 191.1346,59.7593 C191.3896,59.8463 191.7556,59.9543 192.2346,60.0823 C192.7366,60.2263 193.1446,60.3773 193.4546,60.5363 C194.1556,60.8973 194.5346,61.5203 194.5906,62.4073 C194.5906,63.1753 194.3106,63.7903 193.7536,64.2543 C193.2046,64.7083 192.4906,64.9373 191.6136,64.9373 C190.8156,64.9373 190.1386,64.7533 189.5816,64.3853 C189.0226,64.0183 188.6606,63.5513 188.4926,62.9833 L189.9046,62.5633 C189.9676,62.8513 190.1576,63.0903 190.4716,63.2823 C190.7866,63.4743 191.1676,63.5703 191.6136,63.5703 C192.0526,63.5703 192.4206,63.4723 192.7196,63.2763 C193.0186,63.0803 193.1686,62.8323 193.1686,62.5273 C193.1686,62.2243 193.0046,61.9803 192.6766,61.7963 C192.4446,61.6683 192.1456,61.5513 191.7796,61.4483 C190.8256,61.1773 190.1626,60.9423 189.7966,60.7413 C189.0706,60.3253 188.7096,59.7263 188.7096,58.9433 C188.7096,58.2233 188.9626,57.6453 189.4736,57.2053 C189.9916,56.7583 190.6486,56.5333 191.4446,56.5333 C192.1626,56.5333 192.7776,56.7063 193.2856,57.0493 C193.8046,57.3923 194.1396,57.8233 194.2916,58.3433" id="Fill-487" fill="#071436"></path><polygon id="Fill-488" fill="#071436" points="199.6588 58.0074 196.8968 58.0074 196.8968 56.6894 203.8428 56.6894 203.8428 58.0074 201.0808 58.0074 201.0808 64.7814 199.6588 64.7814"></polygon><polygon id="Fill-489" fill="#071436" points="208.0728 64.7813 206.6508 64.7813 206.6508 56.6893 208.0728 56.6893 211.0368 61.9523 214.0018 56.6893 215.4348 56.6893 215.4348 64.7813 214.0018 64.7813 214.0018 59.4103 211.5138 63.8453 210.5688 63.8453 208.0728 59.4103"></polygon><polygon id="Fill-490" fill="#071436" points="218.6773 56.689 224.5813 56.689 224.5813 58.007 220.0993 58.007 220.0993 60.034 223.9603 60.034 223.9603 61.353 220.0993 61.353 220.0993 63.462 224.6403 63.462 224.6403 64.781 218.6773 64.781"></polygon><polygon id="Fill-491" fill="#071436" points="228.9322 64.7813 227.5712 64.7813 227.5712 56.6893 228.8242 56.6893 233.2462 62.3123 233.2462 56.6893 234.6222 56.6893 234.6222 64.7813 233.3672 64.7813 228.9322 59.1473"></polygon><polygon id="Fill-492" fill="#071436" points="240.193 58.0074 237.43 58.0074 237.43 56.6894 244.377 56.6894 244.377 58.0074 241.615 58.0074 241.615 64.7814 240.193 64.7814"></polygon><path d="M252.4937,58.3433 L251.0847,58.7623 C251.0127,58.5163 250.8437,58.3093 250.5807,58.1463 C250.3177,57.9823 250.0147,57.9003 249.6717,57.9003 C249.2987,57.9003 248.9797,57.9903 248.7227,58.1693 C248.4647,58.3493 248.3347,58.5753 248.3347,58.8473 C248.2937,59.1113 248.4857,59.3553 248.9077,59.5783 C249.0047,59.6273 249.1457,59.6863 249.3367,59.7593 C249.5927,59.8463 249.9587,59.9543 250.4377,60.0823 C250.9387,60.2263 251.3477,60.3773 251.6577,60.5363 C252.3587,60.8973 252.7377,61.5203 252.7927,62.4073 C252.7927,63.1753 252.5137,63.7903 251.9567,64.2543 C251.4067,64.7083 250.6937,64.9373 249.8157,64.9373 C249.0177,64.9373 248.3417,64.7533 247.7847,64.3853 C247.2247,64.0183 246.8637,63.5513 246.6947,62.9833 L248.1077,62.5633 C248.1707,62.8513 248.3607,63.0903 248.6747,63.2823 C248.9897,63.4743 249.3707,63.5703 249.8157,63.5703 C250.2557,63.5703 250.6237,63.4723 250.9227,63.2763 C251.2217,63.0803 251.3707,62.8323 251.3707,62.5273 C251.3707,62.2243 251.2067,61.9803 250.8797,61.7963 C250.6477,61.6683 250.3487,61.5513 249.9827,61.4483 C249.0277,61.1773 248.3657,60.9423 247.9997,60.7413 C247.2737,60.3253 246.9117,59.7263 246.9117,58.9433 C246.9117,58.2233 247.1657,57.6453 247.6767,57.2053 C248.1937,56.7583 248.8517,56.5333 249.6477,56.5333 C250.3657,56.5333 250.9797,56.7063 251.4887,57.0493 C252.0077,57.3923 252.3427,57.8233 252.4937,58.3433" id="Fill-493" fill="#071436"></path></g></g></svg> 